/* XPM */
static char * D:\Work\synflow\images\ngDesign48_xpm[] = {
"48 48 110 2",
"  	c None",
". 	c #F84C09",
"+ 	c #F94C08",
"@ 	c #F84C08",
"# 	c #F74C08",
"$ 	c #F9662C",
"% 	c #FCBEA5",
"& 	c #F85312",
"* 	c #F84C07",
"= 	c #F95E20",
"- 	c #FEE8DF",
"; 	c #FFFFFF",
"> 	c #FDD8C9",
", 	c #F85919",
"' 	c #F85717",
") 	c #FEDFD2",
"! 	c #FEE2D6",
"~ 	c #F95F22",
"{ 	c #F85210",
"] 	c #FDD4C4",
"^ 	c #FEEAE2",
"/ 	c #F9672E",
"( 	c #F84E0B",
"_ 	c #FDC8B2",
": 	c #FEF1EC",
"< 	c #F9713B",
"[ 	c #FCBAA0",
"} 	c #FFF7F3",
"| 	c #FA7C4A",
"1 	c #FCAB8B",
"2 	c #FFFBF9",
"3 	c #FA885B",
"4 	c #FB9B74",
"5 	c #FFFEFD",
"6 	c #FB966F",
"7 	c #FA8C60",
"8 	c #FFFEFE",
"9 	c #FEF0EA",
"0 	c #FEF2ED",
"a 	c #FBA583",
"b 	c #FA7F4E",
"c 	c #FFFBFA",
"d 	c #FFF7F4",
"e 	c #FA7D4C",
"f 	c #F96931",
"g 	c #FDCFBC",
"h 	c #FCB598",
"i 	c #F84D0A",
"j 	c #FA733D",
"k 	c #FFF6F2",
"l 	c #F96F38",
"m 	c #FCA887",
"n 	c #FDC2AB",
"o 	c #F8500E",
"p 	c #F96930",
"q 	c #F95C1E",
"r 	c #FB9871",
"s 	c #FB9973",
"t 	c #FDCFBD",
"u 	c #F85515",
"v 	c #F96024",
"w 	c #FEEBE3",
"x 	c #FB956D",
"y 	c #F96E36",
"z 	c #FEEFE9",
"A 	c #FDC1A9",
"B 	c #F84F0C",
"C 	c #FA8B5F",
"D 	c #FEDDD0",
"E 	c #F85414",
"F 	c #FEE2D7",
"G 	c #FFFDFC",
"H 	c #FEE1D5",
"I 	c #FDC9B4",
"J 	c #F85211",
"K 	c #FA7F4F",
"L 	c #FFF8F5",
"M 	c #FCB093",
"N 	c #FDD7C8",
"O 	c #FDD6C6",
"P 	c #FA743F",
"Q 	c #FFF3EF",
"R 	c #FCBEA6",
"S 	c #F84D09",
"T 	c #F8500D",
"U 	c #FDCCB8",
"V 	c #FCA989",
"W 	c #FEE0D4",
"X 	c #F95E21",
"Y 	c #F96A32",
"Z 	c #FEEBE4",
"` 	c #FDCBB7",
" .	c #F8510F",
"..	c #FDC5AF",
"+.	c #FDC3AC",
"@.	c #FEE9E1",
"#.	c #F9672D",
"$.	c #FCBCA2",
"%.	c #FCB79B",
"&.	c #FEF0EB",
"*.	c #F9713A",
"=.	c #FCA786",
"-.	c #FA8A5E",
";.	c #F9591A",
">.	c #FCB295",
",.	c #FFFCFB",
"'.	c #FEDACD",
").	c #FA7845",
"!.	c #FDC8B3",
"~.	c #FA895C",
"                                              . .                                               ",
"                                  + @ @ @ @ @ @ @ @ @ @ @ @ +                                   ",
"                            @ @ @ @ @ @ @ @ @ @ @ @ @ @ @ @ @ @ @ @                             ",
"                        # @ @ @ @ @ @ @ @ @ @ @ @ @ @ @ @ @ @ @ @ @ @ #                         ",
"                      + @ @ @ @ @ @ @ @ @ @ @ $ % & @ @ @ @ @ @ @ @ @ @ +                       ",
"                  * @ @ @ @ @ @ @ @ @ @ @ @ = - ; > , @ @ @ @ @ @ @ @ @ @ @ *                   ",
"                @ @ @ @ @ @ @ @ @ @ @ @ @ ' ) ; ; ; ! ~ @ @ @ @ @ @ @ @ @ @ @ @                 ",
"              @ @ @ @ @ @ @ @ @ @ @ @ @ { ] ; ; ; ; ; ^ / @ @ @ @ @ @ @ @ @ @ @ @               ",
"            @ @ @ @ @ @ @ @ @ @ @ @ @ ( _ ; ; ; ; ; ; ; : < @ @ @ @ @ @ @ @ @ @ @ @             ",
"          * @ @ @ @ @ @ @ @ @ @ @ @ @ [ ; ; ; ; ; ; ; ; ; } | @ @ @ @ @ @ @ @ @ @ @ *           ",
"          @ @ @ @ @ @ @ @ @ @ @ @ @ 1 ; ; ; ; ; ; ; ; ; ; ; 2 3 @ @ @ @ @ @ @ @ @ @ @           ",
"        + @ @ @ @ @ @ @ @ @ @ @ @ 4 ; ; ; ; ; ; ; ; ; ; ; ; ; 5 6 @ @ @ @ @ @ @ @ @ @ +         ",
"      # @ @ @ @ @ @ @ @ @ @ @ @ 7 8 ; ; ; ; ; 9 0 ; ; ; ; ; ; ; ; a @ @ @ @ @ @ @ @ @ @ #       ",
"      @ @ @ @ @ @ @ @ @ @ @ @ b c ; ; ; d % e ( @ f g ; ; ; ; ; ; ; h i @ @ @ @ @ @ @ @ @       ",
"    @ @ @ @ @ @ @ @ @ @ @ @ j d ; ; ; k l @ @ @ @ @ @ m ; ; ; ; ; ; ; n o @ @ @ @ @ @ @ @ @     ",
"    @ @ @ @ @ @ @ @ @ @ @ p 0 ; ; ; 2 | @ @ q r e @ @ @ s 8 ; ; ; ; ; ; t u @ @ @ @ @ @ @ @     ",
"    @ @ @ @ @ @ @ @ @ @ v w ; ; ; ; x @ @ y z ; ; A B @ @ C c ; ; ; ; ; ; D E @ @ @ @ @ @ @     ",
"  + @ @ @ @ @ @ @ @ @ , F ; ; ; ; G ' @ B H ; ; ; ; I J @ @ K L ; ; ; ; ; M @ @ @ @ @ @ @ @ +   ",
"  @ @ @ @ @ @ @ @ @ & > ; ; ; ; ; N @ @ y ; ; ; ; ; ; O ' @ @ P Q ; ; ; R S @ @ @ @ @ @ @ @ @   ",
"  @ @ @ @ @ @ @ @ T U ; ; ; ; ; ; V @ @ j ; ; ; ; ; ; ; W X @ @ Y Z ; ` B @ @ @ @ @ @ @ @ @ @   ",
"  @ @ @ @ @ @ @ @  ...; ; ; ; ; ; +.@ @ i ^ ; ; ; ; ; ; ; @.#.@ @ v $.& @ @ @ @ @ @ @ @ @ @ @   ",
"  @ @ @ @ @ @ @ @ @ i %.; ; ; ; ; L < @ @ f 9 ; ; ; ; ; ; ; &.*.@ @ @ @ @ @ @ @ @ @ @ @ @ @ @   ",
"  @ @ @ @ @ @ @ @ @ @ @ =.; ; ; ; ; Q -.S @ ;.>.,.; ; ; ; ; ; } | @ @ @ @ @ @ @ @ @ @ @ @ @ @   ",
". @ @ @ @ @ @ @ @ @ @ @ @ r 5 ; ; ; ; ; '.).@ @ #.!.; ; ; ; ; ; 2 ~.@ @ @ @ @ @ @ @ @ @ @ @ @ . ",
". @ @ @ @ @ @ @ @ @ @ @ @ @ ~.2 ; ; ; ; ; ; !.#.@ @ ).'.; ; ; ; ; 5 r @ @ @ @ @ @ @ @ @ @ @ @ . ",
"  @ @ @ @ @ @ @ @ @ @ @ @ @ @ | } ; ; ; ; ; ; ,.>.;.@ S -.Q ; ; ; ; ; =.@ @ @ @ @ @ @ @ @ @ @   ",
"  @ @ @ @ @ @ @ @ @ @ @ @ @ @ @ *.&.; ; ; ; ; ; ; 9 f @ @ < L ; ; ; ; ; %.i @ @ @ @ @ @ @ @ @   ",
"  @ @ @ @ @ @ @ @ @ @ @ & $.v @ @ #.@.; ; ; ; ; ; ; ^ i @ @ +.; ; ; ; ; ; .. .@ @ @ @ @ @ @ @   ",
"  @ @ @ @ @ @ @ @ @ @ B ` ; Z Y @ @ X W ; ; ; ; ; ; ; j @ @ V ; ; ; ; ; ; U T @ @ @ @ @ @ @ @   ",
"  @ @ @ @ @ @ @ @ @ S R ; ; ; Q P @ @ ' O ; ; ; ; ; ; y @ @ N ; ; ; ; ; > & @ @ @ @ @ @ @ @ @   ",
"  + @ @ @ @ @ @ @ @ M ; ; ; ; ; L K @ @ J I ; ; ; ; H B @ ' G ; ; ; ; F , @ @ @ @ @ @ @ @ @ +   ",
"    @ @ @ @ @ @ @ E D ; ; ; ; ; ; c C @ @ B A ; ; z y @ @ x ; ; ; ; w v @ @ @ @ @ @ @ @ @ @     ",
"    @ @ @ @ @ @ @ @ u t ; ; ; ; ; ; 8 s @ @ @ e r q @ @ | 2 ; ; ; 0 p @ @ @ @ @ @ @ @ @ @ @     ",
"    @ @ @ @ @ @ @ @ @ o n ; ; ; ; ; ; ; m @ @ @ @ @ @ l k ; ; ; d j @ @ @ @ @ @ @ @ @ @ @ @     ",
"      @ @ @ @ @ @ @ @ @ i h ; ; ; ; ; ; ; g f @ ( e % d ; ; ; c b @ @ @ @ @ @ @ @ @ @ @ @       ",
"      # @ @ @ @ @ @ @ @ @ @ a ; ; ; ; ; ; ; ; 0 9 ; ; ; ; ; 8 7 @ @ @ @ @ @ @ @ @ @ @ @ #       ",
"        + @ @ @ @ @ @ @ @ @ @ 6 5 ; ; ; ; ; ; ; ; ; ; ; ; ; 4 @ @ @ @ @ @ @ @ @ @ @ @ +         ",
"          @ @ @ @ @ @ @ @ @ @ @ 3 2 ; ; ; ; ; ; ; ; ; ; ; 1 @ @ @ @ @ @ @ @ @ @ @ @ @           ",
"          * @ @ @ @ @ @ @ @ @ @ @ | } ; ; ; ; ; ; ; ; ; [ @ @ @ @ @ @ @ @ @ @ @ @ @ *           ",
"            @ @ @ @ @ @ @ @ @ @ @ @ < : ; ; ; ; ; ; ; _ ( @ @ @ @ @ @ @ @ @ @ @ @ @             ",
"              @ @ @ @ @ @ @ @ @ @ @ @ / ^ ; ; ; ; ; ] { @ @ @ @ @ @ @ @ @ @ @ @ @               ",
"                @ @ @ @ @ @ @ @ @ @ @ @ ~ ! ; ; ; ) ' @ @ @ @ @ @ @ @ @ @ @ @ @                 ",
"                  * @ @ @ @ @ @ @ @ @ @ @ , > ; - = @ @ @ @ @ @ @ @ @ @ @ @ *                   ",
"                      + @ @ @ @ @ @ @ @ @ @ & % $ @ @ @ @ @ @ @ @ @ @ @ +                       ",
"                        # @ @ @ @ @ @ @ @ @ @ @ @ @ @ @ @ @ @ @ @ @ @ #                         ",
"                            @ @ @ @ @ @ @ @ @ @ @ @ @ @ @ @ @ @ @ @                             ",
"                                  + @ @ @ @ @ @ @ @ @ @ @ @ +                                   ",
"                                              . .                                               "};
